<svg xmlns="http://www.w3.org/2000/svg" width="133.122" height="144.035" viewBox="0 0 133.122 144.035"><defs><style>.a{fill:#101828;fill-rule:evenodd;}</style></defs><path class="a" d="M397.5,183.537c.157.725.38,1.42.548,2.15a11.964,11.964,0,0,1,.287,2.351c.057,1.742-.03,3.481-1.033,4.676a6.126,6.126,0,0,1-3.568,2.085,9.267,9.267,0,0,1-2.4-.035,5.932,5.932,0,0,1-1.786-.409c-.166-.068-.345-.206-.551-.133-.1.146.075.32.146.437a2.634,2.634,0,0,1,.22.448,3.471,3.471,0,0,1-.338,2.545,2.8,2.8,0,0,1-1.605,1.429,4.016,4.016,0,0,1-2.429.3,4.148,4.148,0,0,1-1.206-.432,3.688,3.688,0,0,0-1.1-.52c-.043.064-.089.067-.118.113-.192.291.1.8.2,1.145a5.784,5.784,0,0,1-.22,2.794,5.916,5.916,0,0,1-.5,1.147,3.55,3.55,0,0,1-4.173,1.608c-.42,2.469-1.5,4.026-3.228,4.777a2.025,2.025,0,0,1-.247.12c-.091.026-.2.029-.3.062s-.16.1-.253.12a7.483,7.483,0,0,1-1.58.162,5.578,5.578,0,0,1-1.282-.078,8.463,8.463,0,0,1-1.293-.394,7.5,7.5,0,0,1-2.18-1.089,10.03,10.03,0,0,1-.8-.761c-.133-.133-.269-.253-.385-.394s-.2-.3-.326-.437a9.1,9.1,0,0,0-.83-.742c-.238-.206-.55-.437-.886-.694-.291-.225-.65-.589-1-.613a1.457,1.457,0,0,0-.594.148,3.286,3.286,0,0,0-.5.242,3.735,3.735,0,0,0-.81.765,45.175,45.175,0,0,0-1.375,7.246c-.181,1.255-.32,2.5-.406,3.731-.04.62-.114,1.211-.127,1.822-.014.588-.07,1.176-.073,1.754,0,1.2-.072,2.361-.115,3.511a16.571,16.571,0,0,0,.016,1.713c.019.268.075.528.092.791s0,.556.011.832c.052,1.107.052,2.239.062,3.382a32.523,32.523,0,0,1-.108,3.486,10.269,10.269,0,0,1-.322,1.873,7.588,7.588,0,0,1-.426,1.157c-.059.125-.1.231-.151.342a1.39,1.39,0,0,1-.486.5c-.361.275-.676.634-1.042.913a3.385,3.385,0,0,1-.428.277c-.046.026-.073.087-.119.111a6.608,6.608,0,0,1-.637.3,7.913,7.913,0,0,1-1.765.526c-.333.068-.73.157-1.117.2a19.712,19.712,0,0,0-2.237.406c-.482.117-.949.284-1.453.361s-1.009.157-1.556.195c-.645.038-1.331.186-1.957.263-.916.111-1.887.106-2.9.13a16.059,16.059,0,0,1-5.261-.935c-1.058-.359-2.124-.681-3.17-1.049-.782-.279-1.54-.545-2.345-.83-.132-.045-.259-.081-.4-.135-.572-.228-1.248-.483-1.833-.757-.237-.108-.467-.221-.7-.333-1.126-.517-2.335-1.068-3.506-1.615-.336-.157-.658-.345-1.04-.512-.125-.055-.22-.117-.34-.18-.23-.118-.482-.195-.732-.311-.216-.1-.43-.25-.65-.354s-.439-.26-.674-.357c-.253-.1-.545-.152-.819-.244-.5-.171-.984-.418-1.472-.6a13.079,13.079,0,0,0-4.375-.781c-.286,0-.575-.011-.854-.019a8.843,8.843,0,0,0-1.6.132c-.526.082-1.057.1-1.583.19-.5.082-1.011.157-1.513.25-1.516.275-3.033.509-4.549.8a26.676,26.676,0,0,1-2.988.559c-.263.025-.523.063-.791.1a12.385,12.385,0,0,1-1.643.075c-.282,0-.561.016-.859.008a10.594,10.594,0,0,1-4.8-1.388,12.708,12.708,0,0,1-1.235-.8,8.8,8.8,0,0,1-1.033-.927,4.028,4.028,0,0,1-1.014-1.805c-.193-.655-.06-1.331.533-1.556a1.992,1.992,0,0,1,.488-.138,3.683,3.683,0,0,1,.615.063,3.5,3.5,0,0,1,1.126.289c.343.147.644.312.946.448a8.577,8.577,0,0,0,1.068.333,7.425,7.425,0,0,0,1.047.279,3.927,3.927,0,0,0,1.143-.016c.049-.008.146-.052.244-.068s.187-.024.265-.04c.16-.035.309-.108.46-.141.288-.065.542-.042.8-.122.038-.011.068-.049.111-.06a8.954,8.954,0,0,0,1.014-.374,7.355,7.355,0,0,0,1.617-.962c.257-.185.5-.374.756-.566a5.641,5.641,0,0,0,1.467-1.917,1.8,1.8,0,0,0,.174-1.038c0-.2.029-.413.035-.591a2.894,2.894,0,0,0-.174-.984,7.227,7.227,0,0,0-.686-1.708,6.9,6.9,0,0,0-1.1-1.427,9.94,9.94,0,0,0-1.5-1.1,7.6,7.6,0,0,0-1.791-.9,18.439,18.439,0,0,0-4.546-.835,1.488,1.488,0,0,1-.258-.01,4.746,4.746,0,0,1-1.7-.657,2.5,2.5,0,0,1-.591-1.125,5.1,5.1,0,0,1-.223-.626,6.653,6.653,0,0,1-.108-.688c-.092-.808-.073-2.262.678-2.734.082-.05.211-.089.3-.135a1.785,1.785,0,0,1,1.011-.192,6.931,6.931,0,0,1,1.57.3c1,.279,2.334.667,2.979.192a.974.974,0,0,0-.193-1.556,4.388,4.388,0,0,0-1.087-.209c-.442-.073-.941-.206-1.437-.284a12.112,12.112,0,0,1-1.434-.309,2.86,2.86,0,0,1-1.445-.6,1.229,1.229,0,0,1-.064-1.174.97.97,0,0,1,.683-.605,5.871,5.871,0,0,1,.8.039,16.048,16.048,0,0,1,1.774.125,22.884,22.884,0,0,0,4.692.021c.746-.057,1.491-.082,2.223-.15a36.591,36.591,0,0,0,4.218-.639,8.327,8.327,0,0,0,.971-.274c.16-.054.327-.078.488-.141.141-.052.273-.141.416-.2.164-.063.321-.093.467-.166a1.757,1.757,0,0,0,.355-.314c.267-.244.537-.423.624-.716a1.981,1.981,0,0,0,0-1.062,1.156,1.156,0,0,0-.93-.757,2.432,2.432,0,0,0-.61.1c-1.331.244-2.836.477-4.187.618-.808.087-1.664.166-2.542.182s-1.8-.023-2.69-.049c-.484-.014-.944-.114-1.406-.147s-.922-.1-1.383-.122a9.753,9.753,0,0,1-1.318-.031c-.111-.023-.205-.077-.322-.1-.342-.068-.7-.125-1.066-.179-.944-.143-1.881-.291-2.824-.38a20.071,20.071,0,0,0-2.763-.265,1.508,1.508,0,0,0-.871,1.535c.04.322.148.613.211.913.014.087-.008.174.011.26a1.515,1.515,0,0,1-.065,1.184c-.214.309-.577.42-.8.664-.533.6-.449,1.508-.59,2.483a4.323,4.323,0,0,1-.176,1.063c-.239.545-1.316.312-1.708-.035a1.352,1.352,0,0,1-.317-.488c-.028-.052-.089-.1-.108-.143-.049-.117-.054-.265-.1-.4s-.094-.255-.127-.382c-.079-.26-.136-.535-.2-.805s-.165-.535-.23-.759c-.221-.809-.453-1.537-.728-2.31-.089-.244-.176-.494-.26-.738a14.516,14.516,0,0,0-.594-1.458c-.211-.463-.518-.868-.746-1.326-.211-.434-.479-.9-.742-1.326-.282-.458-.5-.892-.77-1.3-.141-.209-.323-.406-.458-.61-.421-.608-.822-1.272-1.2-1.936a5.266,5.266,0,0,1-.342-.7,7.938,7.938,0,0,1-.39-1.614,3.41,3.41,0,0,1-.025-.913,4.84,4.84,0,0,1,.917-2.592,5.284,5.284,0,0,1,1.732-1.437c.225-.122.428-.3.655-.4a2.474,2.474,0,0,1,.76-.228c.74-.052,1.024.591,1.2,1.052.068.179.169.361.236.528a7.231,7.231,0,0,0,.418,1.072,2.111,2.111,0,0,0,.85.742,2.281,2.281,0,0,0,1.3.393.73.73,0,0,0,.626-.946.672.672,0,0,0-.235-.343,3.5,3.5,0,0,1-.621-1.1,2.561,2.561,0,0,1,.092-1.906,10.4,10.4,0,0,1,1.591-2.056c.277-.347.45-.74.7-1.117.081-.118.192-.205.282-.322.176-.233.3-.523.472-.765.347-.469.639-.965.984-1.439a18.22,18.22,0,0,0,1.843-3.082,34.74,34.74,0,0,0,1.364-3.722,30.59,30.59,0,0,0,1.5-6.189,9.217,9.217,0,0,0,0-3.061c-.065-.3-.1-.613-.148-.93a4.134,4.134,0,0,0-.063-.477c-.035-.131-.108-.263-.148-.41a1.877,1.877,0,0,1-.063-.474,1.968,1.968,0,0,1,0-.545c.185-.664,1.249-.962,1.827-1.166.372-.13.76-.205,1.134-.306a15.761,15.761,0,0,1,2.415-.38,7.209,7.209,0,0,0,1.171-.219,6.491,6.491,0,0,0,1.589-.579,4.018,4.018,0,0,0,.781-.745,4.6,4.6,0,0,0,.845-1.565c.141-.414.15-.9.277-1.385.117-.444.254-.894.345-1.326.1-.46.16-.923.279-1.388.23-.911.343-1.887.536-2.854.093-.464.214-.93.3-1.383.2-.993.337-1.955.546-2.88a18.892,18.892,0,0,1,.8-2.529c.326-.859.548-1.741.849-2.473a7.274,7.274,0,0,1,.564-1.035,3.61,3.61,0,0,1,.716-.832c.268-.248.5-.527.762-.8.243-.258.528-.477.8-.716s.521-.493.8-.716c.079-.059.164-.089.23-.148.187-.166.354-.4.551-.594a4.747,4.747,0,0,0,.393-.385c.114-.147.215-.307.326-.472a5.7,5.7,0,0,0,.328-.472c.054-.1.07-.206.119-.3a2.452,2.452,0,0,1,.16-.211,5.426,5.426,0,0,0,1.082-2.126,1.75,1.75,0,0,0-.405-1.691,4.5,4.5,0,0,0-2.735-.833c-.355-.021-.716-.082-1.052-.073a10.487,10.487,0,0,0-1.394.138c-.157.021-.312.016-.447.038-.586.087-1.138.273-1.713.376s-1.174.19-1.776.267a18.117,18.117,0,0,1-4.009-.082c-.84-.1-1.464-.249-2.18-.366-.585-.092-.916-.185-1.583-.331-.087-.016-.171.009-.26-.008-.073-.016-.141-.068-.22-.084a15.632,15.632,0,0,0-4.15-.387,4.227,4.227,0,0,0-1.22.371,7.646,7.646,0,0,0-1.425.73,12.639,12.639,0,0,0-1.206,1.019c-.214.176-.434.322-.621.507s-.365.385-.547.572a14.235,14.235,0,0,0-1.249,1.662c-.22.308-.5.658-.716,1.013a21.987,21.987,0,0,0-2.467,6c-.26.966-.472,1.945-.678,2.912-.3,1.432-.488,2.331-.618,3.441-.087.7-.2,1.369-.232,2.144a9.111,9.111,0,0,1-.045,1.033c-.16,1.047-.526,1.9-1.408,2.056a2.223,2.223,0,0,1-.975-.089c-.971-.274-1.823-.6-2.02-1.457-.068-.289-.082-.6-.132-.9a9.818,9.818,0,0,1-.12-1.885c.019-.648.081-1.339-.326-1.707-.087-.025-.125-.087-.216-.109.008-.089,0-.165-.077-.192a21.255,21.255,0,0,1-2.423-1.385,4.85,4.85,0,0,1-1.4-2.147,8.173,8.173,0,0,1-.548-2,7.874,7.874,0,0,1,.491-3.949,6.414,6.414,0,0,1,.648-1.283,6.757,6.757,0,0,1,.821-1.024,16.137,16.137,0,0,1,2.039-1.549,18.746,18.746,0,0,0,2.014-1.58,5.667,5.667,0,0,0,1.237-2.1,5.752,5.752,0,0,0,.176-1.584,16.647,16.647,0,0,1,1.12-4.741,8.7,8.7,0,0,1,.428-1,7.614,7.614,0,0,1,1.079-1.739,6.812,6.812,0,0,1,2.361-1.634c.287-.133.582-.274.887-.394s.642-.19.976-.3a10.455,10.455,0,0,1,1.484-.411,2.511,2.511,0,0,0,.464-.166,5.494,5.494,0,0,0,.908-.364,6.7,6.7,0,0,0,1.493-1.186c.434-.464.746-1.049,1.209-1.565.218-.244.42-.5.648-.737.659-.672,1.419-1.293,2.142-1.9a15.419,15.419,0,0,1,1.491-1.188c.518-.337,1.079-.652,1.645-.985a9.841,9.841,0,0,1,1.732-.864c.272-.1.627-.19.974-.279.169-.04.352-.052.531-.079a1.878,1.878,0,0,1,.551-.048.847.847,0,0,1,.6,1.252,2,2,0,0,1-.331.472c-.357.408-.759.821-1.13,1.213-.481.5-1.044,1.108-1.5,1.6-.3.322-.535.556-.741.829s-.395.572-.65.917c-.2.279-.406.669-.61,1a1.883,1.883,0,0,0-.374,1.166,1.042,1.042,0,0,0,.491.718,1.079,1.079,0,0,0,1.239-.288c.4-.4.808-.791,1.252-1.171a7.606,7.606,0,0,1,.809-.557c.279-.185.514-.418.782-.589a12.961,12.961,0,0,1,1.79-.887,4.074,4.074,0,0,1,.954-.328.749.749,0,0,1,.751,1.093,1.879,1.879,0,0,1-.306.5,2.646,2.646,0,0,0-.352.648c-.02.048,0,.075-.02.127-.106.371-.392,1.054.058,1.255a.835.835,0,0,0,.829-.169,20.837,20.837,0,0,0,1.751-1.564c.2-.176.369-.372.572-.542.58-.488,1.242-.952,1.859-1.418a21.593,21.593,0,0,1,2.633-1.7c.23-.122.477-.205.723-.336.23-.122.483-.23.721-.338.483-.218.96-.472,1.445-.676.122-.049.274-.07.406-.122a8.481,8.481,0,0,1,1.15-.406c.274-.063.547-.111.829-.192a17.941,17.941,0,0,1,2.6-.431,15.009,15.009,0,0,1,2.692-.315c.96.044,1.828-.057,2.838-.062.887,0,2.191.312,2.907-.021a.83.83,0,0,0,.566-.7c.011-.369-.323-.629-.8-.762-.84-.233-1.906-.331-2.885-.515a8.813,8.813,0,0,0-1.383-.122c-.5-.023-.975-.089-1.439-.1s-.918,0-1.347-.014c-.911-.026-1.76.047-2.608.1a7.518,7.518,0,0,0-1.242.157c-.19.045-.385.083-.585.125s-.377.092-.565.127c-.209.038-.409.054-.61.092a29.116,29.116,0,0,0-3.782,1.225,11.7,11.7,0,0,0-1.974.936c-.937.392-1.688.845-2.646,1.255-.643.275-1.253.677-1.93.994a1.744,1.744,0,0,1-.708.236c-.718-.06-.547-.821-.336-1.269a5.009,5.009,0,0,1,.361-.545,10.281,10.281,0,0,1,.772-1.03,7.684,7.684,0,0,1,.878-.886c.3-.258.634-.518.965-.767.481-.364,1.035-.671,1.567-1a12.276,12.276,0,0,1,1.141-.537,17.673,17.673,0,0,1,2.392-.93c.379-.12.805-.252,1.271-.364.44-.1.917-.146,1.359-.247s.9-.162,1.359-.247a13.529,13.529,0,0,1,1.4-.187,20.317,20.317,0,0,1,4.709.1.835.835,0,0,0,.659-.087.772.772,0,0,0,.4-.642c-.019-.873-1.025-.976-2.1-1.079a15.447,15.447,0,0,0-2.722-.028c-.45.044-.892.016-1.328.044s-.859.065-1.26.106a20.625,20.625,0,0,0-2.345.442,20.111,20.111,0,0,0-2.283.554c-.36.127-.731.235-1.087.338-.371.106-.721.247-1.063.366-.555.195-1.073.377-1.613.572-.176.064-.369.092-.542.157s-.331.176-.5.238-.369.084-.542.157c-.326.138-.575.431-.911.57a.712.712,0,0,1-1-.481,1.329,1.329,0,0,1,.23-.872,2.244,2.244,0,0,1,.181-.182,12.338,12.338,0,0,1,2.453-1.906c.288-.195.549-.43.835-.608s.613-.327.927-.491a19.92,19.92,0,0,1,1.941-.862,35.764,35.764,0,0,1,4.138-1.38c1.084-.265,2.19-.5,3.324-.742.749-.16,1.488-.249,2.285-.375.38-.059.76-.16,1.145-.2a23.63,23.63,0,0,1,2.439-.195,6.207,6.207,0,0,0,.626-.04c.214-.023.418-.009.626-.014.418-.014.829-.054,1.252-.054.86,0,1.72-.03,2.6.008.439.019.867.065,1.31.084a5.838,5.838,0,0,1,.59.033c.213.03.408.021.619.035.414.033.835.117,1.274.157.883.084,1.906.23,2.829.328a10.382,10.382,0,0,1,1.14.214c.4.089.8.127,1.186.223s.779.176,1.178.3c.3.089.411-.033.747-.152a16.752,16.752,0,0,1,1.784-.5,28,28,0,0,1,5.084-.9c.46-.019.927-.025,1.4-.033a15.188,15.188,0,0,1,2.283.174,18.939,18.939,0,0,1,2.477.458c1.037.284,2.058.559,2.934.887.223.083.467.148.689.254.205.1.4.225.6.32a12.117,12.117,0,0,1,1.263.594c.518.318,1.077.711,1.633,1.091a4,4,0,0,0,.517.385,3.5,3.5,0,0,0,1.016-.035c.326,0,.638.038.955.033a9.1,9.1,0,0,1,1.922.146,14.6,14.6,0,0,1,3,1c.136.06.288.079.42.138a7.233,7.233,0,0,1,.664.431,9.4,9.4,0,0,1,2.711,2.618c.073.1.141.215.214.318a8.551,8.551,0,0,0,.627.891,2.406,2.406,0,0,0,.481.253c.385.181.829.338,1.223.512a14.588,14.588,0,0,1,2.239,1.228c.228.15.439.309.66.459.12.078.244.13.359.205s.2.169.3.25c.629.488,1.331.888,1.95,1.42.2.174.369.369.571.55s.391.333.6.5a25.338,25.338,0,0,1,2.746,2.754,8.869,8.869,0,0,1,.755.887,19.286,19.286,0,0,1,1.5,2.237c.06.113.092.249.157.36s.155.2.214.315c.117.234.2.483.312.72a18.783,18.783,0,0,1,1.128,2.989c.143.518.343,1.039.474,1.573s.238,1.082.39,1.614c.312,1.059.537,2.179.779,3.275.059.273.052.591.106.9s.089.58.108.871a4.557,4.557,0,0,0,.3,1.678,2.794,2.794,0,0,0,1.2,1.028,9.039,9.039,0,0,1,1.35.894,7.934,7.934,0,0,1,2.359,3.993c.157.523.249,1.077.39,1.638.269,1.087.375,2.242.545,3.426a12.908,12.908,0,0,1,.1,1.856c0,.625-.047,1.279-.016,1.916a15.641,15.641,0,0,1,.04,1.9c-.033.509-.146,1-.167,1.559-.009.143.048.3.038.444a4.973,4.973,0,0,1-.16.575c-.093.4-.174.784-.277,1.2a2.075,2.075,0,0,0-.092.819,1.079,1.079,0,0,0,1.317.759c.455-.062,1.141-.284,1.629-.312a6.043,6.043,0,0,1,1.946.174,6.8,6.8,0,0,1,2.739,1.689,5.6,5.6,0,0,1,.951,1.146,14.639,14.639,0,0,1,1.293,2.755,8.633,8.633,0,0,1,.4,1.589,11.007,11.007,0,0,1,.165,1.735,14.212,14.212,0,0,1-.176,1.765,5.8,5.8,0,0,1-.167.829c-.044.141-.125.277-.166.42s-.04.284-.087.426a15.154,15.154,0,0,1-2.244,4.451c-.32.42-.716.77-1.033,1.228a6.6,6.6,0,0,1,.664,2.793,15.821,15.821,0,0,1-.127,1.615,8.1,8.1,0,0,1-.955,3.053,5.049,5.049,0,0,1-.35.623c-.136.166-.3.318-.458.481a6.346,6.346,0,0,1-1,.843,8.477,8.477,0,0,0-1.072.756M360.48,110.408c-.019-.507-.735-.642-1.277-.857s-1.084-.425-1.624-.62c-1.141-.413-2.282-.829-3.361-1.155-.866-.263-1.835-.479-2.6-.683a36.534,36.534,0,0,0-5.121-.814c-2.279-.219-4.559-.338-5.646,1.033a2.377,2.377,0,0,0-.448.95,1.973,1.973,0,0,0-.108.374,2.752,2.752,0,0,0,.181.57,1.937,1.937,0,0,1,.038,1.174,2.366,2.366,0,0,1-.747.878,3.6,3.6,0,0,1-1.347.352c-.122.019-.242.009-.342.03s-.22.108-.361.155c-.125.04-.27.075-.4.125-.287.1-.555.151-.815.244-.494.179-1.288.414-1.321.9-.019.272.269.567.746.575.366.005.681-.148,1.035-.162,1.575-.058,3.018,0,4.66.07a66.544,66.544,0,0,1,9.909,1.444c.8.161,1.57.366,2.329.567,1.364.36,2.739.634,3.948,1.057,1.559.545,3.134,1.084,4.657,1.706l.984.4c.317.133.624.318.946.448,1.408.572,2.4,1.225,3.7,1.852a4.035,4.035,0,0,0,.979.428c.374.082.754-.005.829-.374.109-.507-.55-.908-1.021-1.185-.521-.306-1.044-.569-1.518-.813-.5-.26-.965-.591-1.458-.859-.255-.138-.516-.269-.772-.4s-.5-.293-.746-.418c-.518-.263-1.03-.542-1.575-.77-1.692-.707-3.335-1.39-5.162-1.984-.577-.187-1.19-.369-1.809-.6-.284-.1-.566-.242-.862-.328-.314-.1-.65-.16-.976-.244-.625-.166-1.3-.312-1.981-.467-.65-.148-1.312-.312-1.93-.458-.228-.054-.518-.068-.811-.141a9.939,9.939,0,0,0-.975-.244,40.6,40.6,0,0,1-5.179-1c-.369-.114-.6-.223-.655-.486-.03-.146.04-.235.122-.474a2.357,2.357,0,0,1,.179-.518,1.254,1.254,0,0,1,.477-.449,3.123,3.123,0,0,1,.882-.342c.146-.038.3-.084.458-.117a12.76,12.76,0,0,1,2.95-.146,25.508,25.508,0,0,1,4.023.521c1.542.331,3.022.58,4.465.876a12.667,12.667,0,0,1,1.518.45,9.142,9.142,0,0,0,1.6.411,3.242,3.242,0,0,0,1.049.1c.206-.237.3-.315.291-.584m-46.719,72.319a19.515,19.515,0,0,0-2.408-.009,11.877,11.877,0,0,0-3.263.518,2.88,2.88,0,0,0-.591.3,1.868,1.868,0,0,0-.629.586,2.382,2.382,0,0,0-.146,1.223,5.167,5.167,0,0,0,.062.632c.136.81.34,1.542.528,2.28.049.185.074.387.128.564.029.087.094.166.119.25.031.108.026.2.064.3.1.27.288.507.4.783s.182.581.314.876c.112.242.282.5.431.79a2.038,2.038,0,0,0,.523.721,2.249,2.249,0,0,0,1.448.209,5.31,5.31,0,0,0,1-.635,11.042,11.042,0,0,0,.935-.723c.326-.263.608-.517.889-.781.859-.8,1.744-1.854,2.546-2.564.289-.258.571-.54.845-.838a9.565,9.565,0,0,0,.808-.925,3.124,3.124,0,0,0,.307-.526,1.848,1.848,0,0,0-.4-1.925,2.582,2.582,0,0,0-1.2-.688,7.82,7.82,0,0,0-1.838-.369c-.289-.025-.572-.03-.878-.047m-21.648,14.252a17.441,17.441,0,0,0-1.065-1.451,5.928,5.928,0,0,0-.569-.548,2.911,2.911,0,0,0-1.876-.84,1.342,1.342,0,0,0-1.2.426,7.483,7.483,0,0,0-1.005,2.683c-.155.727-.3,1.567.089,1.906a4.017,4.017,0,0,0,1.6.385c.735.057,1.535.147,2.2.211,1.185.114,2.378.291,3.462.288.157-.164.347-.182.4-.437a.852.852,0,0,0-.152-.567,1.663,1.663,0,0,0-.4-.314c-.162-.125-.238-.315-.393-.341-.326-.439-.732-.887-1.1-1.4" transform="translate(-271.55 -98.222)"/><path class="a" d="M281.858,156.89a25.525,25.525,0,0,1-3.472-.732,9.748,9.748,0,0,1-1.424-.591,3.69,3.69,0,0,1-.648-.352,3.767,3.767,0,0,1-.989-1.049,1.1,1.1,0,0,1-.286-.74.83.83,0,0,1,.859-.735,4.308,4.308,0,0,1,.7.179,6.792,6.792,0,0,0,1.5.19,2.154,2.154,0,0,0,.654-.038,2.108,2.108,0,0,0,.848-1.2,3.949,3.949,0,0,0,.054-.564,1.569,1.569,0,0,0-.176-1.139,2.086,2.086,0,0,0-.376-.445,3.306,3.306,0,0,0-.34-.176c-.054-.035-.087-.087-.136-.122a8.733,8.733,0,0,1-.815-.455,1.7,1.7,0,0,1-.39-.73,4.473,4.473,0,0,1,.057-.745,1.61,1.61,0,0,1,.775-.718,2.011,2.011,0,0,1,.369-.025,13.9,13.9,0,0,1,2.3.044,8.878,8.878,0,0,1,1.918.376c.35.117.681.225,1.011.354.575.224,1.082.468,1.635.726.282.133.552.3.818.455.082.049.2.1.263.141.155.108.309.291.483.434a7.493,7.493,0,0,1,1.808,2.047c.136.233.267.5.385.756a4.883,4.883,0,0,1,.3.822,4.154,4.154,0,0,1,.182.882c.016.393.005.821-.019,1.242a6.834,6.834,0,0,1-.218,1.317c-.067.254-.2.528-.3.815a3.232,3.232,0,0,1-.294.786,5.648,5.648,0,0,1-.577.591,7.17,7.17,0,0,1-1.917,1.44c-.26.127-.594.211-.906.336a4.685,4.685,0,0,1-.9.312,5.023,5.023,0,0,1-1.326.019,3.479,3.479,0,0,1-1.773-.671.883.883,0,0,1-.314-1.057,4.04,4.04,0,0,1,.135-.577c.114-.279.41-.5.507-.835a1.419,1.419,0,0,0,.03-.566" transform="translate(-270.651 -85.722)"/></svg>